<svg width="217" height="50" viewBox="0 0 217 50" fill="none" xmlns="http://www.w3.org/2000/svg">
<path fill-rule="evenodd" clip-rule="evenodd" d="M19.1083 0L38.2166 32.6533L19.1083 50L0 32.6533L19.1083 0ZM19.1083 12.0647L11.1338 25.6918C13.5186 25.0135 16.2534 24.5053 19.1083 24.5053C21.9632 24.5053 24.698 25.0135 27.0827 25.6918L19.1083 12.0647ZM28.9959 32.7998C28.8568 32.7418 28.7146 32.6836 28.5695 32.6255C25.9469 31.5736 22.5464 30.5879 19.1083 30.5879C15.6702 30.5879 12.2697 31.5736 9.64706 32.6255C9.50197 32.6836 9.35977 32.7418 9.22062 32.7998L19.1083 41.776L28.9959 32.7998ZM58.8246 40.1274V16.9456H50.6982V40.1274H58.8246ZM51.1687 13.139C52.0811 13.9659 53.2787 14.3794 54.7614 14.3794C56.2441 14.3794 57.4417 13.9659 58.3542 13.139C59.2666 12.2836 59.7228 11.2144 59.7228 9.93124C59.7228 8.70515 59.2666 7.70717 58.3542 6.93729C57.4417 6.13891 56.2441 5.73972 54.7614 5.73972C53.2787 5.73972 52.0811 6.15316 51.1687 6.98006C50.2562 7.80696 49.8 8.83346 49.8 10.0596C49.8 11.2856 50.2562 12.3121 51.1687 13.139ZM84.8496 19.1269C83.1103 17.4161 80.8007 16.5607 77.9208 16.5607C76.438 16.5607 75.0694 16.8173 73.8148 17.3306C72.5602 17.8153 71.4766 18.5282 70.5642 19.4691V16.9456H62.8227V40.1274H70.9491V28.9214C70.9491 27.0965 71.3626 25.7279 72.1895 24.8154C73.0449 23.903 74.1712 23.4468 75.5684 23.4468C78.1061 23.4468 79.375 25.0293 79.375 28.1943V40.1274H87.5014V26.8684C87.5014 23.4183 86.6175 20.8378 84.8496 19.1269ZM107.317 39.1864C106.632 39.6141 105.791 39.942 104.793 40.1701C103.824 40.3982 102.783 40.5123 101.671 40.5123C98.6484 40.5123 96.3245 39.7709 94.6992 38.2882C93.074 36.8055 92.2613 34.5957 92.2613 31.6588V23.8745H88.8824V17.8011H92.2613V11.7704H100.388V17.8011H105.691V23.8745H100.388V31.5732C100.388 32.4001 100.602 33.0559 101.029 33.5407C101.486 33.9969 102.084 34.225 102.826 34.225C103.767 34.225 104.594 33.9826 105.306 33.4979L107.317 39.1864ZM120.116 17.3733C118.805 17.8866 117.735 18.6707 116.909 19.7257V16.9456H109.167V40.1274H117.294V29.4775C117.294 27.5385 117.778 26.0986 118.748 25.1576C119.746 24.2167 121.114 23.7462 122.854 23.7462C123.338 23.7462 123.951 23.7889 124.693 23.8745V16.5607C122.982 16.5607 121.457 16.8316 120.116 17.3733ZM138.188 40.5123C135.707 40.5123 133.469 39.999 131.473 38.9726C129.477 37.9461 127.909 36.5204 126.768 34.6955C125.656 32.8706 125.1 30.8033 125.1 28.4937C125.1 26.2126 125.656 24.1596 126.768 22.3347C127.909 20.5099 129.463 19.0984 131.43 18.1004C133.426 17.074 135.679 16.5607 138.188 16.5607C140.697 16.5607 142.95 17.074 144.946 18.1004C146.942 19.0984 148.496 20.5099 149.608 22.3347C150.72 24.1311 151.276 26.1841 151.276 28.4937C151.276 30.8033 150.72 32.8706 149.608 34.6955C148.496 36.5204 146.942 37.9461 144.946 38.9726C142.95 39.999 140.697 40.5123 138.188 40.5123ZM138.188 34.0539C139.614 34.0539 140.783 33.5692 141.695 32.5997C142.608 31.6017 143.064 30.2331 143.064 28.4937C143.064 26.7829 142.608 25.4428 141.695 24.4733C140.783 23.5038 139.614 23.0191 138.188 23.0191C136.762 23.0191 135.593 23.5038 134.681 24.4733C133.768 25.4428 133.312 26.7829 133.312 28.4937C133.312 30.2331 133.768 31.6017 134.681 32.5997C135.593 33.5692 136.762 34.0539 138.188 34.0539ZM174.073 18.0577C172.362 17.0597 170.452 16.5607 168.342 16.5607C165.291 16.5607 163.01 17.4589 161.499 19.2553V16.9456H153.757V48.4249H161.884V38.0744C163.48 39.6997 165.633 40.5123 168.342 40.5123C170.452 40.5123 172.362 40.0276 174.073 39.0581C175.813 38.0601 177.181 36.6629 178.179 34.8666C179.206 33.0417 179.719 30.9317 179.719 28.5365C179.719 26.1413 179.206 24.0456 178.179 22.2492C177.181 20.4243 175.813 19.0271 174.073 18.0577ZM170.138 32.5997C169.226 33.5692 168.057 34.0539 166.631 34.0539C165.206 34.0539 164.036 33.5692 163.124 32.5997C162.212 31.6017 161.755 30.2473 161.755 28.5365C161.755 26.8257 162.212 25.4855 163.124 24.5161C164.036 23.5181 165.206 23.0191 166.631 23.0191C168.057 23.0191 169.226 23.5181 170.138 24.5161C171.051 25.4855 171.507 26.8257 171.507 28.5365C171.507 30.2473 171.051 31.6017 170.138 32.5997ZM186.276 14.3794C184.794 14.3794 183.596 13.9659 182.684 13.139C181.771 12.3121 181.315 11.2856 181.315 10.0596C181.315 8.83346 181.771 7.80696 182.684 6.98006C183.596 6.15316 184.794 5.73972 186.276 5.73972C187.759 5.73972 188.957 6.13891 189.869 6.93729C190.781 7.70717 191.238 8.70515 191.238 9.93124C191.238 11.2144 190.781 12.2836 189.869 13.139C188.957 13.9659 187.759 14.3794 186.276 14.3794ZM213.028 19.2125C211.004 17.4446 208.067 16.5607 204.218 16.5607C202.364 16.5607 200.511 16.8031 198.657 17.2878C196.833 17.744 195.279 18.3998 193.995 19.2553L196.733 24.7727C197.531 24.1454 198.501 23.6606 199.641 23.3185C200.782 22.9478 201.908 22.7625 203.02 22.7625C206.157 22.7625 207.796 23.9885 207.939 26.4407H203.319C199.812 26.4407 197.217 27.0538 195.535 28.2799C193.853 29.4775 193.012 31.174 193.012 33.3696C193.012 34.7383 193.34 35.9643 193.995 37.0479C194.68 38.1029 195.678 38.944 196.989 39.5713C198.301 40.1986 199.855 40.5123 201.651 40.5123C205.045 40.5123 207.326 39.386 208.495 37.1334V40.1274H216.065V27.2534C216.065 23.6321 215.053 20.9518 213.028 19.2125ZM206.399 34.6955C205.686 35.1517 204.859 35.3798 203.918 35.3798C202.977 35.3798 202.236 35.166 201.694 34.7383C201.152 34.3105 200.882 33.7403 200.882 33.0274C200.882 31.4592 202.065 30.675 204.431 30.675H207.939V32.6853C207.625 33.5692 207.112 34.2393 206.399 34.6955ZM182.213 16.9456H190.34V40.1274H182.213V16.9456Z" fill="white" fill-opacity="0.3"/>
</svg>