<svg width="1200" height="630" viewBox="0 0 1200 630" fill="none" xmlns="http://www.w3.org/2000/svg">
<g clip-path="url(#clip0_2854_24444)">
<rect width="1200" height="630" fill="#060A1B"/>
<g opacity="0.18" filter="url(#filter0_f_2854_24444)">
<ellipse cx="600" cy="315" rx="310" ry="92" fill="#1369D2"/>
</g>
<path fill-rule="evenodd" clip-rule="evenodd" d="M404.038 260L446.076 331.837L404.038 370L362 331.837L404.038 260ZM404.038 286.542L386.494 316.522C391.741 315.03 397.757 313.912 404.038 313.912C410.319 313.912 416.336 315.03 421.582 316.522L404.038 286.542ZM425.791 332.16C425.485 332.032 425.172 331.904 424.853 331.776C419.083 329.462 411.602 327.293 404.038 327.293C396.474 327.293 388.993 329.462 383.224 331.776C382.904 331.904 382.592 332.032 382.285 332.16L404.038 351.907L425.791 332.16ZM491.414 348.28V297.28H473.536V348.28H491.414ZM474.571 288.906C476.578 290.725 479.213 291.635 482.475 291.635C485.737 291.635 488.372 290.725 490.379 288.906C492.387 287.024 493.39 284.672 493.39 281.849C493.39 279.151 492.387 276.956 490.379 275.262C488.372 273.506 485.737 272.627 482.475 272.627C479.213 272.627 476.578 273.537 474.571 275.356C472.564 277.175 471.56 279.434 471.56 282.131C471.56 284.828 472.564 287.087 474.571 288.906ZM548.669 302.079C544.843 298.315 539.761 296.434 533.426 296.434C530.164 296.434 527.153 296.998 524.393 298.127C521.632 299.194 519.249 300.762 517.241 302.832V297.28H500.21V348.28H518.088V323.627C518.088 319.612 518.998 316.601 520.817 314.594C522.699 312.587 525.177 311.583 528.25 311.583C533.833 311.583 536.625 315.064 536.625 322.028V348.28H554.503V319.111C554.503 311.52 552.558 305.843 548.669 302.079ZM598.097 346.21C596.591 347.151 594.74 347.872 592.545 348.374C590.412 348.876 588.122 349.127 585.676 349.127C579.026 349.127 573.914 347.496 570.338 344.234C566.763 340.972 564.975 336.11 564.975 329.649V312.524H557.541V299.162H564.975V285.895H582.853V299.162H594.521V312.524H582.853V329.461C582.853 331.28 583.324 332.723 584.264 333.789C585.268 334.793 586.585 335.295 588.216 335.295C590.287 335.295 592.106 334.762 593.674 333.695L598.097 346.21ZM626.256 298.221C623.37 299.351 621.018 301.076 619.199 303.397V297.28H602.168V348.28H620.046V324.85C620.046 320.585 621.112 317.417 623.245 315.347C625.441 313.277 628.452 312.242 632.278 312.242C633.345 312.242 634.693 312.336 636.324 312.524V296.434C632.56 296.434 629.204 297.029 626.256 298.221ZM666.014 349.127C660.556 349.127 655.632 347.998 651.241 345.74C646.85 343.481 643.399 340.345 640.89 336.33C638.444 332.315 637.22 327.767 637.22 322.686C637.22 317.668 638.444 313.151 640.89 309.136C643.399 305.122 646.818 302.017 651.147 299.821C655.538 297.563 660.493 296.434 666.014 296.434C671.534 296.434 676.49 297.563 680.881 299.821C685.272 302.017 688.691 305.122 691.137 309.136C693.584 313.088 694.807 317.605 694.807 322.686C694.807 327.767 693.584 332.315 691.137 336.33C688.691 340.345 685.272 343.481 680.881 345.74C676.49 347.998 671.534 349.127 666.014 349.127ZM666.014 334.919C669.15 334.919 671.722 333.852 673.729 331.719C675.737 329.524 676.741 326.513 676.741 322.686C676.741 318.922 675.737 315.974 673.729 313.841C671.722 311.708 669.15 310.642 666.014 310.642C662.877 310.642 660.305 311.708 658.298 313.841C656.29 315.974 655.287 318.922 655.287 322.686C655.287 326.513 656.29 329.524 658.298 331.719C660.305 333.852 662.877 334.919 666.014 334.919ZM744.961 299.727C741.197 297.531 736.995 296.434 732.353 296.434C725.64 296.434 720.622 298.41 717.297 302.362V297.28H700.266V366.535H718.144V343.764C721.657 347.339 726.393 349.127 732.353 349.127C736.995 349.127 741.197 348.061 744.961 345.928C748.788 343.732 751.799 340.658 753.994 336.706C756.253 332.692 757.382 328.05 757.382 322.78C757.382 317.511 756.253 312.9 753.994 308.948C751.799 304.934 748.788 301.86 744.961 299.727ZM736.304 331.719C734.297 333.852 731.725 334.919 728.589 334.919C725.452 334.919 722.88 333.852 720.873 331.719C718.865 329.524 717.862 326.544 717.862 322.78C717.862 319.016 718.865 316.068 720.873 313.935C722.88 311.74 725.452 310.642 728.589 310.642C731.725 310.642 734.297 311.74 736.304 313.935C738.312 316.068 739.316 319.016 739.316 322.78C739.316 326.544 738.312 329.524 736.304 331.719ZM771.808 291.635C768.546 291.635 765.911 290.725 763.904 288.906C761.897 287.087 760.893 284.828 760.893 282.131C760.893 279.434 761.897 277.175 763.904 275.356C765.911 273.537 768.546 272.627 771.808 272.627C775.07 272.627 777.705 273.506 779.712 275.262C781.719 276.956 782.723 279.151 782.723 281.849C782.723 284.672 781.719 287.024 779.712 288.906C777.705 290.725 775.07 291.635 771.808 291.635ZM830.662 302.267C826.209 298.378 819.747 296.434 811.279 296.434C807.201 296.434 803.124 296.967 799.046 298.033C795.032 299.037 791.613 300.48 788.79 302.362L794.812 314.5C796.569 313.12 798.701 312.053 801.211 311.301C803.72 310.485 806.198 310.077 808.644 310.077C815.544 310.077 819.151 312.775 819.465 318.17H809.303C801.587 318.17 795.878 319.518 792.177 322.216C788.476 324.85 786.626 328.583 786.626 333.413C786.626 336.424 787.347 339.122 788.79 341.505C790.296 343.826 792.491 345.677 795.377 347.057C798.262 348.437 801.681 349.127 805.633 349.127C813.098 349.127 818.116 346.649 820.688 341.693V348.28H837.343V319.957C837.343 311.991 835.116 306.094 830.662 302.267ZM816.078 336.33C814.509 337.334 812.69 337.836 810.62 337.836C808.55 337.836 806.919 337.365 805.727 336.424C804.535 335.483 803.939 334.229 803.939 332.66C803.939 329.21 806.543 327.485 811.749 327.485H819.465V331.908C818.775 333.852 817.646 335.326 816.078 336.33ZM762.869 297.28H780.747V348.28H762.869V297.28Z" fill="url(#paint0_linear_2854_24444)"/>
</g>
<defs>
<filter id="filter0_f_2854_24444" x="40" y="-27" width="1120" height="684" filterUnits="userSpaceOnUse" color-interpolation-filters="sRGB">
<feFlood flood-opacity="0" result="BackgroundImageFix"/>
<feBlend mode="normal" in="SourceGraphic" in2="BackgroundImageFix" result="shape"/>
<feGaussianBlur stdDeviation="125" result="effect1_foregroundBlur_2854_24444"/>
</filter>
<linearGradient id="paint0_linear_2854_24444" x1="622.27" y1="260" x2="622.27" y2="370" gradientUnits="userSpaceOnUse">
<stop stop-color="#04BEFE"/>
<stop offset="0.142857" stop-color="#00B1F9"/>
<stop offset="0.285714" stop-color="#00A4F4"/>
<stop offset="0.428571" stop-color="#0097EE"/>
<stop offset="0.571429" stop-color="#008AE7"/>
<stop offset="0.714286" stop-color="#007CDF"/>
<stop offset="0.857143" stop-color="#066ED6"/>
<stop offset="1" stop-color="#2660CB"/>
</linearGradient>
<clipPath id="clip0_2854_24444">
<rect width="1200" height="630" fill="white"/>
</clipPath>
</defs>
</svg>
