<svg width="1200" height="600" viewBox="0 0 1200 600" fill="none" xmlns="http://www.w3.org/2000/svg">
<g clip-path="url(#clip0_2896_18900)">
<rect width="1200" height="600" fill="url(#paint0_linear_2896_18900)"/>
<path opacity="0.4" fill-rule="evenodd" clip-rule="evenodd" d="M587.999 -623L1217 458.477L587.999 1033L-41 458.477L587.999 -623ZM588 -223.418L325.5 227.914C404 205.447 494.023 188.616 588 188.616C681.976 188.616 772 205.447 850.5 227.914L588 -223.418ZM913.478 463.33C908.898 461.41 904.217 459.482 899.441 457.555C813.111 422.716 701.174 390.073 588 390.073C474.825 390.073 362.889 422.716 276.559 457.555C271.783 459.482 267.102 461.409 262.521 463.33L588 760.62L913.478 463.33Z" fill="#8D9BD7" fill-opacity="0.2"/>
</g>
<defs>
<linearGradient id="paint0_linear_2896_18900" x1="657.049" y1="0" x2="657.049" y2="600" gradientUnits="userSpaceOnUse">
<stop stop-color="#060A1B"/>
<stop offset="1" stop-color="#2660CB"/>
</linearGradient>
<clipPath id="clip0_2896_18900">
<rect width="1200" height="600" fill="white"/>
</clipPath>
</defs>
</svg>
