<svg width="1200" height="630" viewBox="0 0 1200 630" fill="none" xmlns="http://www.w3.org/2000/svg">
<g clip-path="url(#clip0_2896_18883)">
<rect width="1200" height="630" fill="url(#paint0_linear_2896_18883)"/>
<path opacity="0.2" fill-rule="evenodd" clip-rule="evenodd" d="M587.999 -629L1217 452.477L587.999 1027L-41 452.477L587.999 -629ZM588 -229.418L325.5 221.914C404 199.447 494.023 182.616 588 182.616C681.976 182.616 772 199.447 850.5 221.914L588 -229.418ZM913.478 457.33C908.898 455.41 904.217 453.482 899.441 451.555C813.111 416.716 701.174 384.073 588 384.073C474.825 384.073 362.889 416.716 276.559 451.555C271.783 453.482 267.102 455.409 262.521 457.33L588 754.62L913.478 457.33Z" fill="white" fill-opacity="0.3"/>
<path fill-rule="evenodd" clip-rule="evenodd" d="M532.151 72.6533L513.076 40L494 72.6533L513.076 90L532.151 72.6533ZM505.115 65.6918L513.076 52.0647L521.036 65.6918C518.656 65.0135 515.926 64.5053 513.076 64.5053C510.226 64.5053 507.495 65.0135 505.115 65.6918ZM522.521 72.6255C522.666 72.6836 522.808 72.7418 522.946 72.7998L513.076 81.776L503.205 72.7998C503.344 72.7418 503.486 72.6836 503.631 72.6255C506.249 71.5736 509.643 70.5879 513.076 70.5879C516.508 70.5879 519.903 71.5736 522.521 72.6255ZM613.068 60.3977C611.421 59.4628 609.582 58.9954 607.551 58.9954C604.916 58.9954 602.844 59.7653 601.334 61.305V51.1182H593.511V81.7198H600.963V79.4927C602.418 81.2249 604.614 82.091 607.551 82.091C609.582 82.091 611.421 81.6236 613.068 80.6887C614.742 79.7264 616.06 78.3654 617.02 76.6058C618.009 74.8461 618.503 72.8115 618.503 70.502C618.503 68.1924 618.009 66.1715 617.02 64.4394C616.06 62.6797 614.742 61.3325 613.068 60.3977ZM609.28 74.4612C608.402 75.396 607.276 75.8634 605.904 75.8634C604.532 75.8634 603.406 75.396 602.528 74.4612C601.65 73.4989 601.211 72.1791 601.211 70.502C601.211 68.8523 601.65 67.56 602.528 66.6252C603.406 65.6904 604.532 65.223 605.904 65.223C607.276 65.223 608.402 65.6904 609.28 66.6252C610.158 67.56 610.598 68.8523 610.598 70.502C610.598 72.1791 610.158 73.4989 609.28 74.4612ZM644.371 81.7198V59.3666H636.549V70.1308C636.549 71.9179 636.151 73.2514 635.355 74.1313C634.586 74.9836 633.584 75.4098 632.349 75.4098C631.141 75.4098 630.222 75.0248 629.591 74.255C628.959 73.4851 628.644 72.2616 628.644 70.5844V59.3666H620.821V71.8629C620.821 75.2723 621.672 77.8293 623.374 79.534C625.103 81.2386 627.409 82.091 630.291 82.091C631.581 82.091 632.802 81.8573 633.955 81.3899C635.108 80.9224 636.096 80.2351 636.919 79.3278V81.7198H644.371ZM663.573 80.8125C662.914 81.2249 662.105 81.5411 661.144 81.761C660.211 81.981 659.209 82.091 658.138 82.091C655.229 82.091 652.992 81.3761 651.427 79.9464C649.863 78.5167 649.081 76.3858 649.081 73.5539V66.0478H645.828V60.1914H649.081V54.3763H656.903V60.1914H662.008V66.0478H656.903V73.4714C656.903 74.2687 657.109 74.9011 657.521 75.3685C657.96 75.8084 658.536 76.0284 659.25 76.0284C660.156 76.0284 660.952 75.7947 661.638 75.3273L663.573 80.8125ZM669.446 80.6063C671.367 81.5961 673.522 82.091 675.91 82.091C678.325 82.091 680.493 81.5961 682.415 80.6063C684.336 79.6164 685.832 78.2417 686.903 76.482C687.973 74.7224 688.508 72.729 688.508 70.502C688.508 68.2749 687.973 66.2953 686.903 64.5631C685.832 62.8034 684.336 61.4425 682.415 60.4801C680.493 59.4903 678.325 58.9954 675.91 58.9954C673.494 58.9954 671.326 59.4903 669.405 60.4801C667.511 61.4425 666.015 62.8034 664.917 64.5631C663.846 66.3228 663.311 68.3024 663.311 70.502C663.311 72.729 663.846 74.7224 664.917 76.482C666.015 78.2417 667.524 79.6164 669.446 80.6063ZM679.286 74.4612C678.407 75.396 677.282 75.8634 675.91 75.8634C674.537 75.8634 673.412 75.396 672.534 74.4612C671.655 73.4989 671.216 72.1791 671.216 70.502C671.216 68.8523 671.655 67.56 672.534 66.6252C673.412 65.6904 674.537 65.223 675.91 65.223C677.282 65.223 678.407 65.6904 679.286 66.6252C680.164 67.56 680.603 68.8523 680.603 70.502C680.603 72.1791 680.164 73.4989 679.286 74.4612ZM698.349 62.0473C699.145 61.03 700.174 60.2739 701.437 59.779C702.727 59.2566 704.195 58.9954 705.842 58.9954V66.0478C705.128 65.9653 704.538 65.9241 704.072 65.9241C702.397 65.9241 701.08 66.3778 700.119 67.2851C699.186 68.1924 698.719 69.5809 698.719 71.4505V81.7198H690.897V59.3666H698.349V62.0473ZM552.719 81.761C553.679 81.541 554.489 81.2248 555.148 80.8124L553.213 75.3272C552.527 75.7946 551.731 76.0283 550.825 76.0283C550.111 76.0283 549.535 75.8084 549.096 75.3685C548.684 74.9011 548.478 74.2687 548.478 73.4713V66.0478H553.583V60.1914H548.478V54.3763H540.655V60.1914H537.403V66.0478H540.655V73.5538C540.655 76.3858 541.438 78.5166 543.002 79.9463C544.567 81.3761 546.804 82.0909 549.713 82.0909C550.784 82.0909 551.786 81.9809 552.719 81.761ZM567.469 59.779C566.207 60.2739 565.177 61.03 564.381 62.0473V59.3666H556.929V81.7197H564.752V71.4505C564.752 69.5808 565.218 68.1924 566.152 67.285C567.112 66.3777 568.43 65.924 570.104 65.924C570.571 65.924 571.161 65.9653 571.874 66.0478V58.9954C570.228 58.9954 568.759 59.2566 567.469 59.779ZM590.076 70.5697C589.079 69.3975 587.638 68.616 585.752 68.2253L590.466 63.1458V59.1083H574.016V64.0901H582.989L578.925 68.4858V72.5559H581.624C583.943 72.5559 585.102 73.2939 585.102 74.77C585.102 75.5298 584.777 76.1159 584.127 76.5283C583.477 76.9407 582.599 77.147 581.494 77.147C580.41 77.147 579.305 76.9842 578.178 76.6586C577.072 76.3329 576.075 75.8662 575.187 75.2584L572.846 80.11C573.995 80.8263 575.349 81.3799 576.91 81.7706C578.492 82.1613 580.085 82.3567 581.689 82.3567C583.878 82.3567 585.709 82.0094 587.183 81.3147C588.678 80.5984 589.783 79.665 590.499 78.5145C591.235 77.364 591.604 76.1159 591.604 74.77C591.604 73.1203 591.095 71.7202 590.076 70.5697Z" fill="white" fill-opacity="0.3"/>
</g>
<defs>
<linearGradient id="paint0_linear_2896_18883" x1="600.359" y1="-0.0861099" x2="600.359" y2="629.465" gradientUnits="userSpaceOnUse">
<stop stop-color="#1D4D9E"/>
<stop offset="0.142857" stop-color="#3D54A4"/>
<stop offset="0.285714" stop-color="#535CAA"/>
<stop offset="0.428571" stop-color="#6664AF"/>
<stop offset="0.571429" stop-color="#776DB5"/>
<stop offset="0.714286" stop-color="#8775BB"/>
<stop offset="0.857143" stop-color="#977FC0"/>
<stop offset="1" stop-color="#A588C6"/>
</linearGradient>
<clipPath id="clip0_2896_18883">
<rect width="1200" height="630" fill="white"/>
</clipPath>
</defs>
</svg>
