<svg width="1200" height="630" viewBox="0 0 1200 630" fill="none" xmlns="http://www.w3.org/2000/svg">
<g clip-path="url(#clip0_2896_18848)">
<rect width="1200" height="630" fill="url(#paint0_linear_2896_18848)"/>
<path opacity="0.43" fill-rule="evenodd" clip-rule="evenodd" d="M587.999 -629L1217 452.477L587.999 1027L-41 452.477L587.999 -629ZM588 -229.418L325.5 221.914C404 199.447 494.023 182.616 588 182.616C681.976 182.616 772 199.447 850.5 221.914L588 -229.418ZM913.478 457.33C908.898 455.41 904.217 453.482 899.441 451.555C813.111 416.716 701.174 384.073 588 384.073C474.825 384.073 362.889 416.716 276.559 451.555C271.783 453.482 267.102 455.409 262.521 457.33L588 754.62L913.478 457.33Z" fill="white" fill-opacity="0.3"/>
<path opacity="0.6" fill-rule="evenodd" clip-rule="evenodd" d="M532.151 92.6533L513.076 60L494 92.6533L513.076 110L532.151 92.6533ZM505.115 85.6918L513.076 72.0647L521.036 85.6918C518.656 85.0135 515.926 84.5053 513.076 84.5053C510.226 84.5053 507.495 85.0135 505.115 85.6918ZM522.521 92.6255C522.666 92.6836 522.808 92.7418 522.946 92.7998L513.076 101.776L503.205 92.7998C503.344 92.7418 503.486 92.6836 503.631 92.6255C506.249 91.5736 509.643 90.5879 513.076 90.5879C516.508 90.5879 519.903 91.5736 522.521 92.6255ZM613.068 80.3977C611.421 79.4628 609.582 78.9954 607.551 78.9954C604.916 78.9954 602.844 79.7653 601.334 81.305V71.1182H593.511V101.72H600.963V99.4927C602.418 101.225 604.614 102.091 607.551 102.091C609.582 102.091 611.421 101.624 613.068 100.689C614.742 99.7264 616.06 98.3654 617.02 96.6058C618.009 94.8461 618.503 92.8115 618.503 90.502C618.503 88.1924 618.009 86.1715 617.02 84.4394C616.06 82.6797 614.742 81.3325 613.068 80.3977ZM609.28 94.4612C608.402 95.396 607.276 95.8634 605.904 95.8634C604.532 95.8634 603.406 95.396 602.528 94.4612C601.65 93.4989 601.211 92.1791 601.211 90.502C601.211 88.8523 601.65 87.56 602.528 86.6252C603.406 85.6904 604.532 85.223 605.904 85.223C607.276 85.223 608.402 85.6904 609.28 86.6252C610.158 87.56 610.598 88.8523 610.598 90.502C610.598 92.1791 610.158 93.4989 609.28 94.4612ZM644.371 101.72V79.3666H636.549V90.1308C636.549 91.9179 636.151 93.2514 635.355 94.1313C634.586 94.9836 633.584 95.4098 632.349 95.4098C631.141 95.4098 630.222 95.0248 629.591 94.255C628.959 93.4851 628.644 92.2616 628.644 90.5844V79.3666H620.821V91.8629C620.821 95.2723 621.672 97.8293 623.374 99.534C625.103 101.239 627.409 102.091 630.291 102.091C631.581 102.091 632.802 101.857 633.955 101.39C635.108 100.922 636.096 100.235 636.919 99.3278V101.72H644.371ZM663.573 100.812C662.914 101.225 662.105 101.541 661.144 101.761C660.211 101.981 659.209 102.091 658.138 102.091C655.229 102.091 652.992 101.376 651.427 99.9464C649.863 98.5167 649.081 96.3858 649.081 93.5539V86.0478H645.828V80.1914H649.081V74.3763H656.903V80.1914H662.008V86.0478H656.903V93.4714C656.903 94.2687 657.109 94.9011 657.521 95.3685C657.96 95.8084 658.536 96.0284 659.25 96.0284C660.156 96.0284 660.952 95.7947 661.638 95.3273L663.573 100.812ZM669.446 100.606C671.367 101.596 673.522 102.091 675.91 102.091C678.325 102.091 680.493 101.596 682.415 100.606C684.336 99.6164 685.832 98.2417 686.903 96.482C687.973 94.7224 688.508 92.729 688.508 90.502C688.508 88.2749 687.973 86.2953 686.903 84.5631C685.832 82.8034 684.336 81.4425 682.415 80.4801C680.493 79.4903 678.325 78.9954 675.91 78.9954C673.494 78.9954 671.326 79.4903 669.405 80.4801C667.511 81.4425 666.015 82.8034 664.917 84.5631C663.846 86.3228 663.311 88.3024 663.311 90.502C663.311 92.729 663.846 94.7224 664.917 96.482C666.015 98.2417 667.524 99.6164 669.446 100.606ZM679.286 94.4612C678.407 95.396 677.282 95.8634 675.91 95.8634C674.537 95.8634 673.412 95.396 672.534 94.4612C671.655 93.4989 671.216 92.1791 671.216 90.502C671.216 88.8523 671.655 87.56 672.534 86.6252C673.412 85.6904 674.537 85.223 675.91 85.223C677.282 85.223 678.407 85.6904 679.286 86.6252C680.164 87.56 680.603 88.8523 680.603 90.502C680.603 92.1791 680.164 93.4989 679.286 94.4612ZM698.349 82.0473C699.145 81.03 700.174 80.2739 701.437 79.779C702.727 79.2566 704.195 78.9954 705.842 78.9954V86.0478C705.128 85.9653 704.538 85.9241 704.072 85.9241C702.397 85.9241 701.08 86.3778 700.119 87.2851C699.186 88.1924 698.719 89.5809 698.719 91.4505V101.72H690.897V79.3666H698.349V82.0473ZM552.719 101.761C553.679 101.541 554.489 101.225 555.148 100.812L553.213 95.3272C552.527 95.7946 551.731 96.0283 550.825 96.0283C550.111 96.0283 549.535 95.8084 549.096 95.3685C548.684 94.9011 548.478 94.2687 548.478 93.4713V86.0478H553.583V80.1914H548.478V74.3763H540.655V80.1914H537.403V86.0478H540.655V93.5538C540.655 96.3858 541.438 98.5166 543.002 99.9463C544.567 101.376 546.804 102.091 549.713 102.091C550.784 102.091 551.786 101.981 552.719 101.761ZM567.469 79.779C566.207 80.2739 565.177 81.03 564.381 82.0473V79.3666H556.929V101.72H564.752V91.4505C564.752 89.5808 565.218 88.1924 566.152 87.285C567.112 86.3777 568.43 85.924 570.104 85.924C570.571 85.924 571.161 85.9653 571.874 86.0478V78.9954C570.228 78.9954 568.759 79.2566 567.469 79.779ZM590.076 90.5697C589.079 89.3975 587.638 88.616 585.752 88.2253L590.466 83.1458V79.1083H574.016V84.0901H582.989L578.925 88.4858V92.5559H581.624C583.943 92.5559 585.102 93.2939 585.102 94.77C585.102 95.5298 584.777 96.1159 584.127 96.5283C583.477 96.9407 582.599 97.147 581.494 97.147C580.41 97.147 579.305 96.9842 578.178 96.6586C577.072 96.3329 576.075 95.8662 575.187 95.2584L572.846 100.11C573.995 100.826 575.349 101.38 576.91 101.771C578.492 102.161 580.085 102.357 581.689 102.357C583.878 102.357 585.709 102.009 587.183 101.315C588.678 100.598 589.783 99.665 590.499 98.5145C591.235 97.364 591.604 96.1159 591.604 94.77C591.604 93.1203 591.095 91.7202 590.076 90.5697Z" fill="white"/>
</g>
<defs>
<linearGradient id="paint0_linear_2896_18848" x1="657.049" y1="0" x2="657.049" y2="630" gradientUnits="userSpaceOnUse">
<stop stop-color="#04BEFE"/>
<stop offset="0.142857" stop-color="#00B1F9"/>
<stop offset="0.285714" stop-color="#00A4F4"/>
<stop offset="0.428571" stop-color="#0097EE"/>
<stop offset="0.571429" stop-color="#008AE7"/>
<stop offset="0.714286" stop-color="#007CDF"/>
<stop offset="0.857143" stop-color="#066ED6"/>
<stop offset="1" stop-color="#2660CB"/>
</linearGradient>
<clipPath id="clip0_2896_18848">
<rect width="1200" height="630" fill="white"/>
</clipPath>
</defs>
</svg>
