<svg width="212" height="50" viewBox="0 0 212 50" fill="none" xmlns="http://www.w3.org/2000/svg">
<path fill-rule="evenodd" clip-rule="evenodd" d="M38.1513 32.6533L19.0756 0L0 32.6533L19.0756 50L38.1513 32.6533ZM11.1148 25.6918L19.0757 12.0647L27.0365 25.6918C24.6558 25.0135 21.9257 24.5053 19.0757 24.5053C16.2256 24.5053 13.4955 25.0135 11.1148 25.6918ZM28.5207 32.6255C28.6656 32.6836 28.8075 32.7418 28.9464 32.7998L19.0757 41.776L9.20488 32.7998C9.3438 32.7418 9.48575 32.6836 9.6306 32.6255C12.2487 31.5736 15.6434 30.5879 19.0757 30.5879C22.5079 30.5879 25.9026 31.5736 28.5207 32.6255ZM119.068 20.3977C117.421 19.4628 115.582 18.9954 113.551 18.9954C110.916 18.9954 108.844 19.7653 107.334 21.305V11.1182H99.5114V41.7198H106.963V39.4927C108.418 41.2249 110.614 42.091 113.551 42.091C115.582 42.091 117.421 41.6236 119.068 40.6887C120.742 39.7264 122.06 38.3654 123.02 36.6058C124.009 34.8461 124.503 32.8115 124.503 30.502C124.503 28.1924 124.009 26.1715 123.02 24.4394C122.06 22.6797 120.742 21.3325 119.068 20.3977ZM115.28 34.4612C114.402 35.396 113.276 35.8634 111.904 35.8634C110.532 35.8634 109.406 35.396 108.528 34.4612C107.65 33.4989 107.211 32.1791 107.211 30.502C107.211 28.8523 107.65 27.56 108.528 26.6252C109.406 25.6904 110.532 25.223 111.904 25.223C113.276 25.223 114.402 25.6904 115.28 26.6252C116.158 27.56 116.598 28.8523 116.598 30.502C116.598 32.1791 116.158 33.4989 115.28 34.4612ZM150.371 41.7198V19.3666H142.549V30.1308C142.549 31.9179 142.151 33.2514 141.355 34.1313C140.586 34.9836 139.584 35.4098 138.349 35.4098C137.141 35.4098 136.222 35.0248 135.591 34.255C134.959 33.4851 134.644 32.2616 134.644 30.5844V19.3666H126.821V31.8629C126.821 35.2723 127.672 37.8293 129.374 39.534C131.103 41.2386 133.409 42.091 136.291 42.091C137.581 42.091 138.802 41.8573 139.955 41.3899C141.108 40.9224 142.096 40.2351 142.919 39.3278V41.7198H150.371ZM169.573 40.8125C168.914 41.2249 168.105 41.5411 167.144 41.761C166.211 41.981 165.209 42.091 164.138 42.091C161.229 42.091 158.992 41.3761 157.427 39.9464C155.863 38.5167 155.081 36.3858 155.081 33.5539V26.0478H151.828V20.1914H155.081V14.3763H162.903V20.1914H168.008V26.0478H162.903V33.4714C162.903 34.2687 163.109 34.9011 163.521 35.3685C163.96 35.8084 164.536 36.0284 165.25 36.0284C166.156 36.0284 166.952 35.7947 167.638 35.3273L169.573 40.8125ZM175.446 40.6063C177.367 41.5961 179.522 42.091 181.91 42.091C184.325 42.091 186.493 41.5961 188.415 40.6063C190.336 39.6164 191.832 38.2417 192.903 36.482C193.973 34.7224 194.508 32.729 194.508 30.502C194.508 28.2749 193.973 26.2953 192.903 24.5631C191.832 22.8034 190.336 21.4425 188.415 20.4801C186.493 19.4903 184.325 18.9954 181.91 18.9954C179.494 18.9954 177.326 19.4903 175.405 20.4801C173.511 21.4425 172.015 22.8034 170.917 24.5631C169.846 26.3228 169.311 28.3024 169.311 30.502C169.311 32.729 169.846 34.7224 170.917 36.482C172.015 38.2417 173.524 39.6164 175.446 40.6063ZM185.286 34.4612C184.407 35.396 183.282 35.8634 181.91 35.8634C180.537 35.8634 179.412 35.396 178.534 34.4612C177.655 33.4989 177.216 32.1791 177.216 30.502C177.216 28.8523 177.655 27.56 178.534 26.6252C179.412 25.6904 180.537 25.223 181.91 25.223C183.282 25.223 184.407 25.6904 185.286 26.6252C186.164 27.56 186.603 28.8523 186.603 30.502C186.603 32.1791 186.164 33.4989 185.286 34.4612ZM204.349 22.0473C205.145 21.03 206.174 20.2739 207.437 19.779C208.727 19.2566 210.195 18.9954 211.842 18.9954V26.0478C211.128 25.9653 210.538 25.9241 210.072 25.9241C208.397 25.9241 207.08 26.3778 206.119 27.2851C205.186 28.1924 204.719 29.5809 204.719 31.4505V41.7198H196.897V19.3666H204.349V22.0473ZM58.7187 41.761C59.6794 41.541 60.4891 41.2248 61.1479 40.8124L59.2128 35.3272C58.5266 35.7946 57.7306 36.0283 56.8248 36.0283C56.1112 36.0283 55.5348 35.8084 55.0956 35.3685C54.6839 34.9011 54.4781 34.2687 54.4781 33.4713V26.0478H59.5833V20.1914H54.4781V14.3763H46.6554V20.1914H43.4029V26.0478H46.6554V33.5538C46.6554 36.3858 47.4377 38.5166 49.0022 39.9463C50.5667 41.3761 52.8037 42.0909 55.7132 42.0909C56.7837 42.0909 57.7855 41.9809 58.7187 41.761ZM73.4691 19.779C72.2065 20.2739 71.1772 21.03 70.3812 22.0473V19.3666H62.9292V41.7197H70.7518V31.4505C70.7518 29.5808 71.2184 28.1924 72.1516 27.285C73.1123 26.3777 74.4298 25.924 76.1041 25.924C76.5707 25.924 77.1608 25.9653 77.8745 26.0478V18.9954C76.2276 18.9954 74.7592 19.2566 73.4691 19.779ZM96.0759 30.5697C95.079 29.3975 93.6377 28.616 91.7522 28.2253L96.466 23.1458V19.1083H80.0164V24.0901H88.9889L84.9253 28.4858V32.5559H87.6236C89.9425 32.5559 91.102 33.2939 91.102 34.77C91.102 35.5298 90.7769 36.1159 90.1268 36.5283C89.4766 36.9407 88.5988 37.147 87.4935 37.147C86.4099 37.147 85.3046 36.9842 84.1776 36.6586C83.0723 36.3329 82.0753 35.8662 81.1868 35.2584L78.8461 40.11C79.9948 40.8263 81.3493 41.3799 82.9097 41.7706C84.4918 42.1613 86.0848 42.3567 87.6886 42.3567C89.8775 42.3567 91.7089 42.0094 93.1826 41.3147C94.678 40.5984 95.7833 39.665 96.4985 38.5145C97.2354 37.364 97.6038 36.1159 97.6038 34.77C97.6038 33.1203 97.0945 31.7202 96.0759 30.5697Z" fill="white" fill-opacity="0.3"/>
</svg>
