<svg width="1200" height="630" viewBox="0 0 1200 630" fill="none" xmlns="http://www.w3.org/2000/svg">
<g clip-path="url(#clip0_2854_24444)">
<rect width="1200" height="630" fill="#060A1B"/>
<g opacity="0.18" filter="url(#filter0_f_2854_24444)">
<ellipse cx="600" cy="315" rx="310" ry="92" fill="#1369D2"/>
</g>
<path fill-rule="evenodd" clip-rule="evenodd" d="M452.203 331.184L410.602 260L369 331.184L410.602 369L452.203 331.184ZM393.24 316.008L410.602 286.301L427.963 316.008C422.771 314.529 416.817 313.422 410.602 313.422C404.386 313.422 398.432 314.529 393.24 316.008ZM431.2 331.123C431.516 331.25 431.825 331.377 432.128 331.504L410.602 351.072L389.075 331.504C389.378 331.377 389.687 331.25 390.003 331.123C395.713 328.83 403.116 326.682 410.602 326.682C418.087 326.682 425.49 328.83 431.2 331.123ZM628.672 304.467C625.08 302.429 621.069 301.41 616.64 301.41C610.893 301.41 606.374 303.088 603.081 306.445V284.238H586.021V350.949H602.273V346.094C605.446 349.87 610.235 351.758 616.64 351.758C621.069 351.758 625.08 350.739 628.672 348.701C632.323 346.604 635.196 343.637 637.292 339.801C639.446 335.965 640.524 331.529 640.524 326.494C640.524 321.459 639.446 317.054 637.292 313.278C635.196 309.442 632.323 306.505 628.672 304.467ZM620.411 335.125C618.495 337.163 616.041 338.182 613.048 338.182C610.055 338.182 607.601 337.163 605.685 335.125C603.77 333.028 602.812 330.151 602.812 326.494C602.812 322.898 603.77 320.081 605.685 318.043C607.601 316.005 610.055 314.986 613.048 314.986C616.041 314.986 618.495 316.005 620.411 318.043C622.326 320.081 623.284 322.898 623.284 326.494C623.284 330.151 622.326 333.028 620.411 335.125ZM696.94 350.949V302.219H679.88V325.685C679.88 329.581 679.012 332.488 677.276 334.406C675.6 336.264 673.415 337.193 670.721 337.193C668.088 337.193 666.082 336.354 664.706 334.676C663.329 332.998 662.64 330.33 662.64 326.674V302.219H645.58V329.461C645.58 336.894 647.436 342.468 651.147 346.184C654.918 349.9 659.947 351.758 666.232 351.758C669.045 351.758 671.709 351.249 674.223 350.23C676.737 349.211 678.892 347.712 680.688 345.734V350.949H696.94ZM738.817 348.971C737.38 349.87 735.614 350.56 733.519 351.039C731.484 351.519 729.299 351.758 726.964 351.758C720.619 351.758 715.741 350.2 712.329 347.083C708.917 343.966 707.211 339.321 707.211 333.147V316.784H700.117V304.017H707.211V291.34H724.271V304.017H735.405V316.784H724.271V332.968C724.271 334.706 724.72 336.084 725.617 337.103C726.575 338.062 727.832 338.542 729.389 338.542C731.364 338.542 733.1 338.032 734.596 337.013L738.817 348.971ZM751.624 348.522C755.814 350.679 760.514 351.758 765.721 351.758C770.989 351.758 775.718 350.679 779.908 348.522C784.098 346.364 787.361 343.367 789.695 339.531C792.03 335.695 793.197 331.349 793.197 326.494C793.197 321.639 792.03 317.324 789.695 313.548C787.361 309.711 784.098 306.745 779.908 304.647C775.718 302.489 770.989 301.41 765.721 301.41C760.454 301.41 755.725 302.489 751.534 304.647C747.404 306.745 744.142 309.711 741.747 313.548C739.413 317.384 738.246 321.699 738.246 326.494C738.246 331.349 739.413 335.695 741.747 339.531C744.142 343.367 747.434 346.364 751.624 348.522ZM773.084 335.125C771.169 337.163 768.714 338.182 765.721 338.182C762.728 338.182 760.274 337.163 758.359 335.125C756.443 333.028 755.485 330.151 755.485 326.494C755.485 322.898 756.443 320.081 758.359 318.043C760.274 316.005 762.728 314.986 765.721 314.986C768.714 314.986 771.169 316.005 773.084 318.043C775 320.081 775.957 322.898 775.957 326.494C775.957 330.151 775 333.028 773.084 335.125ZM814.658 308.063C816.394 305.845 818.639 304.197 821.393 303.118C824.206 301.979 827.408 301.41 831 301.41V316.784C829.444 316.604 828.157 316.515 827.139 316.515C823.488 316.515 820.614 317.503 818.519 319.481C816.484 321.459 815.466 324.486 815.466 328.562V350.949H798.406V302.219H814.658V308.063ZM497.058 351.039C499.153 350.559 500.919 349.87 502.356 348.971L498.135 337.013C496.639 338.032 494.903 338.542 492.928 338.542C491.371 338.542 490.114 338.062 489.156 337.103C488.258 336.084 487.81 334.706 487.81 332.968V316.784H498.943V304.017H487.81V291.34H470.749V304.017H463.656V316.784H470.749V333.147C470.749 339.321 472.455 343.966 475.867 347.083C479.279 350.2 484.158 351.758 490.503 351.758C492.838 351.758 495.023 351.518 497.058 351.039ZM529.227 303.118C526.473 304.197 524.228 305.845 522.492 308.063V302.219H506.24V350.949H523.3V328.562C523.3 324.486 524.318 321.459 526.353 319.481C528.448 317.503 531.322 316.514 534.973 316.514C535.991 316.514 537.278 316.604 538.834 316.784V301.41C535.243 301.41 532.04 301.979 529.227 303.118ZM578.529 326.642C576.355 324.087 573.212 322.383 569.1 321.531L579.38 310.458V301.656H543.505V312.516H563.073L554.211 322.099V330.972H560.096C565.153 330.972 567.682 332.581 567.682 335.799C567.682 337.455 566.973 338.733 565.555 339.632C564.137 340.531 562.222 340.98 559.812 340.98C557.449 340.98 555.038 340.625 552.58 339.916C550.17 339.206 547.996 338.188 546.058 336.863L540.953 347.44C543.458 349.001 546.412 350.208 549.815 351.06C553.266 351.912 556.74 352.338 560.237 352.338C565.011 352.338 569.005 351.58 572.219 350.066C575.48 348.505 577.891 346.47 579.451 343.962C581.058 341.454 581.861 338.733 581.861 335.799C581.861 332.202 580.751 329.15 578.529 326.642Z" fill="url(#paint0_linear_2854_24444)"/>
</g>
<defs>
<filter id="filter0_f_2854_24444" x="40" y="-27" width="1120" height="684" filterUnits="userSpaceOnUse" color-interpolation-filters="sRGB">
<feFlood flood-opacity="0" result="BackgroundImageFix"/>
<feBlend mode="normal" in="SourceGraphic" in2="BackgroundImageFix" result="shape"/>
<feGaussianBlur stdDeviation="125" result="effect1_foregroundBlur_2854_24444"/>
</filter>
<linearGradient id="paint0_linear_2854_24444" x1="621.964" y1="260" x2="621.964" y2="369" gradientUnits="userSpaceOnUse">
<stop stop-color="#04BEFE"/>
<stop offset="0.142857" stop-color="#00B1F9"/>
<stop offset="0.285714" stop-color="#00A4F4"/>
<stop offset="0.428571" stop-color="#0097EE"/>
<stop offset="0.571429" stop-color="#008AE7"/>
<stop offset="0.714286" stop-color="#007CDF"/>
<stop offset="0.857143" stop-color="#066ED6"/>
<stop offset="1" stop-color="#2660CB"/>
</linearGradient>
<clipPath id="clip0_2854_24444">
<rect width="1200" height="630" fill="white"/>
</clipPath>
</defs>
</svg>
