<svg width="1200" height="630" viewBox="0 0 1200 630" fill="none" xmlns="http://www.w3.org/2000/svg">
<g clip-path="url(#clip0_2896_18902)">
<rect width="1200" height="630" fill="url(#paint0_linear_2896_18902)"/>
<path opacity="0.2" fill-rule="evenodd" clip-rule="evenodd" d="M587.999 -629L1217 452.477L587.999 1027L-41 452.477L587.999 -629ZM588 -229.418L325.5 221.914C404 199.447 494.023 182.616 588 182.616C681.976 182.616 772 199.447 850.5 221.914L588 -229.418ZM913.478 457.33C908.898 455.41 904.217 453.482 899.441 451.555C813.111 416.716 701.174 384.073 588 384.073C474.825 384.073 362.889 416.716 276.559 451.555C271.783 453.482 267.102 455.409 262.521 457.33L588 754.62L913.478 457.33Z" fill="white" fill-opacity="0.3"/>
</g>
<defs>
<linearGradient id="paint0_linear_2896_18902" x1="600.359" y1="-0.0861099" x2="600.359" y2="629.465" gradientUnits="userSpaceOnUse">
<stop stop-color="#1D4D9E"/>
<stop offset="0.142857" stop-color="#3D54A4"/>
<stop offset="0.285714" stop-color="#535CAA"/>
<stop offset="0.428571" stop-color="#6664AF"/>
<stop offset="0.571429" stop-color="#776DB5"/>
<stop offset="0.714286" stop-color="#8775BB"/>
<stop offset="0.857143" stop-color="#977FC0"/>
<stop offset="1" stop-color="#A588C6"/>
</linearGradient>
<clipPath id="clip0_2896_18902">
<rect width="1200" height="630" fill="white"/>
</clipPath>
</defs>
</svg>
